#include <stdint.h>
const uint8_t background[] = {
		0x4d, 0x54, 0x68, 0x64, 0x00, 0x00, 0x00, 0x06, 0x00, 0x01, 0x00, 0x03, 0x00, 0xdc, 0x4d, 0x54, 0x72,
		0x6b, 0x00, 0x00, 0x00, 0x4a, 0x00, 0xff, 0x03, 0x2d, 0x4c, 0x65, 0x67, 0x65, 0x6e, 0x64, 0x20,
		0x4f, 0x66, 0x20, 0x5a, 0x65, 0x6c, 0x64, 0x61, 0x20, 0x4d, 0x61, 0x69, 0x6e, 0x20, 0x54, 0x68,
		0x65, 0x6d, 0x65, 0x20, 0x2d, 0x20, 0x4e, 0x69, 0x6e, 0x74, 0x65, 0x6e, 0x64, 0x6f, 0x20, 0x2d,
		0x20, 0x56, 0x65, 0x72, 0x73, 0x65, 0x00, 0xff, 0x59, 0x02, 0x0e, 0x00, 0x00, 0xff, 0x51, 0x03,
		0x09, 0xf3, 0x8d, 0x00, 0xff, 0x58, 0x04, 0x04, 0x02, 0x18, 0x08, 0x00, 0xff, 0x2f, 0x00, 0x4d,
		0x54, 0x72, 0x6b, 0x00, 0x00, 0x03, 0x7c, 0x00, 0xff, 0x03, 0x2d, 0x4c, 0x65, 0x67, 0x65, 0x6e,
		0x64, 0x20, 0x4f, 0x66, 0x20, 0x5a, 0x65, 0x6c, 0x64, 0x61, 0x20, 0x4d, 0x61, 0x69, 0x6e, 0x20,
		0x54, 0x68, 0x65, 0x6d, 0x65, 0x20, 0x2d, 0x20, 0x4e, 0x69, 0x6e, 0x74, 0x65, 0x6e, 0x64, 0x6f,
		0x20, 0x2d, 0x20, 0x56, 0x65, 0x72, 0x73, 0x65, 0x00, 0xc0, 0x00, 0x00, 0x90, 0x45, 0x65, 0x81,
		0x5c, 0x80, 0x45, 0x00, 0x00, 0x90, 0x40, 0x65, 0x82, 0x4a, 0x80, 0x40, 0x00, 0x00, 0x90, 0x45,
		0x65, 0x6e, 0x80, 0x45, 0x00, 0x00, 0x90, 0x45, 0x65, 0x37, 0x80, 0x45, 0x00, 0x00, 0x90, 0x47,
		0x65, 0x37, 0x80, 0x47, 0x00, 0x00, 0x90, 0x49, 0x65, 0x37, 0x80, 0x49, 0x00, 0x00, 0x90, 0x4a,
		0x65, 0x37, 0x80, 0x4a, 0x00, 0x00, 0x90, 0x4c, 0x65, 0x84, 0x26, 0x80, 0x4c, 0x00, 0x00, 0x90,
		0x4c, 0x65, 0x6e, 0x80, 0x4c, 0x00, 0x00, 0x90, 0x4c, 0x65, 0x37, 0x80, 0x4c, 0x00, 0x00, 0x90,
		0x4d, 0x65, 0x6e, 0x80, 0x4d, 0x00, 0x00, 0x90, 0x4f, 0x65, 0x37, 0x80, 0x4f, 0x00, 0x00, 0x90,
		0x51, 0x65, 0x84, 0x26, 0x80, 0x51, 0x00, 0x00, 0x90, 0x51, 0x65, 0x6e, 0x80, 0x51, 0x00, 0x00,
		0x90, 0x51, 0x65, 0x37, 0x80, 0x51, 0x00, 0x00, 0x90, 0x4f, 0x65, 0x6e, 0x80, 0x4f, 0x00, 0x00,
		0x90, 0x4d, 0x65, 0x37, 0x80, 0x4d, 0x00, 0x00, 0x90, 0x4f, 0x65, 0x81, 0x25, 0x80, 0x4f, 0x00,
		0x00, 0x90, 0x4d, 0x65, 0x37, 0x80, 0x4d, 0x00, 0x00, 0x90, 0x4c, 0x65, 0x83, 0x38, 0x80, 0x4c,
		0x00, 0x00, 0x90, 0x4c, 0x65, 0x81, 0x5c, 0x80, 0x4c, 0x00, 0x00, 0x90, 0x4a, 0x65, 0x6e, 0x80,
		0x4a, 0x00, 0x00, 0x90, 0x4a, 0x65, 0x37, 0x80, 0x4a, 0x00, 0x00, 0x90, 0x4c, 0x65, 0x37, 0x80,
		0x4c, 0x00, 0x00, 0x90, 0x4d, 0x65, 0x83, 0x38, 0x80, 0x4d, 0x00, 0x00, 0x90, 0x4c, 0x65, 0x6e,
		0x80, 0x4c, 0x00, 0x00, 0x90, 0x4a, 0x65, 0x6e, 0x80, 0x4a, 0x00, 0x00, 0x90, 0x48, 0x65, 0x6e,
		0x80, 0x48, 0x00, 0x00, 0x90, 0x48, 0x65, 0x37, 0x80, 0x48, 0x00, 0x00, 0x90, 0x4a, 0x65, 0x37,
		0x80, 0x4a, 0x00, 0x00, 0x90, 0x4c, 0x65, 0x83, 0x38, 0x80, 0x4c, 0x00, 0x00, 0x90, 0x4a, 0x65,
		0x6e, 0x80, 0x4a, 0x00, 0x00, 0x90, 0x48, 0x65, 0x6e, 0x80, 0x48, 0x00, 0x00, 0x90, 0x47, 0x65,
		0x6e, 0x80, 0x47, 0x00, 0x00, 0x90, 0x47, 0x65, 0x37, 0x80, 0x47, 0x00, 0x00, 0x90, 0x49, 0x65,
		0x37, 0x80, 0x49, 0x00, 0x00, 0x90, 0x4b, 0x65, 0x83, 0x38, 0x80, 0x4b, 0x00, 0x00, 0x90, 0x4e,
		0x65, 0x81, 0x5c, 0x80, 0x4e, 0x00, 0x00, 0x90, 0x4c, 0x65, 0x6e, 0x80, 0x4c, 0x00, 0x00, 0x90,
		0x40, 0x65, 0x37, 0x80, 0x40, 0x00, 0x00, 0x90, 0x40, 0x65, 0x37, 0x80, 0x40, 0x00, 0x00, 0x90,
		0x40, 0x65, 0x6e, 0x80, 0x40, 0x00, 0x00, 0x90, 0x40, 0x65, 0x37, 0x80, 0x40, 0x00, 0x00, 0x90,
		0x40, 0x65, 0x37, 0x80, 0x40, 0x00, 0x00, 0x90, 0x40, 0x65, 0x6e, 0x80, 0x40, 0x00, 0x00, 0x90,
		0x40, 0x65, 0x37, 0x80, 0x40, 0x00, 0x00, 0x90, 0x40, 0x65, 0x37, 0x80, 0x40, 0x00, 0x00, 0x90,
		0x40, 0x65, 0x6e, 0x80, 0x40, 0x00, 0x00, 0x90, 0x40, 0x65, 0x6e, 0x80, 0x40, 0x00, 0x00, 0x90,
		0x45, 0x65, 0x81, 0x5c, 0x80, 0x45, 0x00, 0x00, 0x90, 0x40, 0x65, 0x82, 0x4a, 0x80, 0x40, 0x00,
		0x00, 0x90, 0x45, 0x65, 0x6e, 0x80, 0x45, 0x00, 0x00, 0x90, 0x45, 0x65, 0x37, 0x80, 0x45, 0x00,
		0x00, 0x90, 0x47, 0x65, 0x37, 0x80, 0x47, 0x00, 0x00, 0x90, 0x49, 0x65, 0x37, 0x80, 0x49, 0x00,
		0x00, 0x90, 0x4a, 0x65, 0x37, 0x80, 0x4a, 0x00, 0x00, 0x90, 0x4c, 0x65, 0x84, 0x26, 0x80, 0x4c,
		0x00, 0x00, 0x90, 0x4c, 0x65, 0x6e, 0x80, 0x4c, 0x00, 0x00, 0x90, 0x4c, 0x65, 0x37, 0x80, 0x4c,
		0x00, 0x00, 0x90, 0x4d, 0x65, 0x6e, 0x80, 0x4d, 0x00, 0x00, 0x90, 0x4f, 0x65, 0x37, 0x80, 0x4f,
		0x00, 0x00, 0x90, 0x51, 0x65, 0x85, 0x14, 0x80, 0x51, 0x00, 0x00, 0x90, 0x54, 0x65, 0x81, 0x5c,
		0x80, 0x54, 0x00, 0x00, 0x90, 0x53, 0x65, 0x81, 0x5c, 0x80, 0x53, 0x00, 0x00, 0x90, 0x50, 0x65,
		0x83, 0x38, 0x80, 0x50, 0x00, 0x00, 0x90, 0x4c, 0x65, 0x81, 0x5c, 0x80, 0x4c, 0x00, 0x00, 0x90,
		0x4d, 0x65, 0x37, 0x80, 0x4d, 0x00, 0x84, 0x5d, 0x90, 0x51, 0x65, 0x81, 0x5c, 0x80, 0x51, 0x00,
		0x00, 0x90, 0x50, 0x65, 0x81, 0x5c, 0x80, 0x50, 0x00, 0x00, 0x90, 0x4c, 0x65, 0x83, 0x38, 0x80,
		0x4c, 0x00, 0x00, 0x90, 0x4c, 0x65, 0x81, 0x5c, 0x80, 0x4c, 0x00, 0x00, 0x90, 0x4d, 0x65, 0x00,
		0x90, 0x39, 0x65, 0x00, 0x90, 0x36, 0x65, 0x00, 0x90, 0x33, 0x65, 0x37, 0x80, 0x4d, 0x00, 0x84,
		0x5d, 0x90, 0x51, 0x65, 0x81, 0x5c, 0x80, 0x39, 0x00, 0x00, 0x80, 0x36, 0x00, 0x00, 0x80, 0x33,
		0x00, 0x00, 0x80, 0x51, 0x00, 0x00, 0x90, 0x50, 0x65, 0x81, 0x5c, 0x80, 0x50, 0x00, 0x00, 0x90,
		0x4c, 0x65, 0x83, 0x38, 0x80, 0x4c, 0x00, 0x00, 0x90, 0x49, 0x65, 0x81, 0x5c, 0x80, 0x49, 0x00,
		0x00, 0x90, 0x4a, 0x65, 0x85, 0x14, 0x80, 0x4a, 0x00, 0x00, 0x90, 0x4d, 0x65, 0x81, 0x5c, 0x80,
		0x4d, 0x00, 0x00, 0x90, 0x4c, 0x65, 0x81, 0x5c, 0x80, 0x4c, 0x00, 0x00, 0x90, 0x48, 0x65, 0x83,
		0x38, 0x80, 0x48, 0x00, 0x00, 0x90, 0x45, 0x65, 0x81, 0x5c, 0x80, 0x45, 0x00, 0x00, 0x90, 0x47,
		0x65, 0x6e, 0x80, 0x47, 0x00, 0x00, 0x90, 0x47, 0x65, 0x37, 0x80, 0x47, 0x00, 0x00, 0x90, 0x49,
		0x65, 0x37, 0x80, 0x49, 0x00, 0x00, 0x90, 0x4b, 0x65, 0x83, 0x38, 0x80, 0x4b, 0x00, 0x00, 0x90,
		0x4e, 0x65, 0x81, 0x5c, 0x80, 0x4e, 0x00, 0x00, 0x90, 0x4c, 0x65, 0x6e, 0x80, 0x4c, 0x00, 0x00,
		0x90, 0x40, 0x65, 0x37, 0x80, 0x40, 0x00, 0x00, 0x90, 0x40, 0x65, 0x37, 0x80, 0x40, 0x00, 0x00,
		0x90, 0x40, 0x65, 0x6e, 0x80, 0x40, 0x00, 0x00, 0x90, 0x40, 0x65, 0x37, 0x80, 0x40, 0x00, 0x00,
		0x90, 0x40, 0x65, 0x37, 0x80, 0x40, 0x00, 0x00, 0x90, 0x40, 0x65, 0x6e, 0x80, 0x40, 0x00, 0x00,
		0x90, 0x40, 0x65, 0x37, 0x80, 0x40, 0x00, 0x00, 0x90, 0x40, 0x65, 0x37, 0x80, 0x40, 0x00, 0x00,
		0x90, 0x40, 0x65, 0x6e, 0x80, 0x40, 0x00, 0x00, 0x90, 0x40, 0x65, 0x6e, 0x80, 0x40, 0x00, 0x00,
		0xff, 0x2f, 0x00, 0x4d, 0x54, 0x72, 0x6b, 0x00, 0x00, 0x02, 0x24, 0x00, 0xff, 0x03, 0x2d, 0x4c,
		0x65, 0x67, 0x65, 0x6e, 0x64, 0x20, 0x4f, 0x66, 0x20, 0x5a, 0x65, 0x6c, 0x64, 0x61, 0x20, 0x4d,
		0x61, 0x69, 0x6e, 0x20, 0x54, 0x68, 0x65, 0x6d, 0x65, 0x20, 0x2d, 0x20, 0x4e, 0x69, 0x6e, 0x74,
		0x65, 0x6e, 0x64, 0x6f, 0x20, 0x2d, 0x20, 0x56, 0x65, 0x72, 0x73, 0x65, 0x00, 0xc0, 0x00, 0x00,
		0x90, 0x2d, 0x65, 0x00, 0x90, 0x31, 0x65, 0x00, 0x90, 0x34, 0x65, 0x86, 0x70, 0x80, 0x2d, 0x00,
		0x00, 0x80, 0x31, 0x00, 0x00, 0x80, 0x34, 0x00, 0x00, 0x90, 0x2b, 0x65, 0x00, 0x90, 0x2f, 0x65,
		0x00, 0x90, 0x32, 0x65, 0x00, 0x90, 0x34, 0x65, 0x86, 0x70, 0x80, 0x2b, 0x00, 0x00, 0x80, 0x2f,
		0x00, 0x00, 0x80, 0x32, 0x00, 0x00, 0x80, 0x34, 0x00, 0x00, 0x90, 0x35, 0x65, 0x00, 0x90, 0x39,
		0x65, 0x00, 0x90, 0x3c, 0x65, 0x86, 0x70, 0x80, 0x35, 0x00, 0x00, 0x80, 0x39, 0x00, 0x00, 0x80,
		0x3c, 0x00, 0x00, 0x90, 0x30, 0x65, 0x00, 0x90, 0x34, 0x65, 0x00, 0x90, 0x37, 0x65, 0x86, 0x70,
		0x80, 0x30, 0x00, 0x00, 0x80, 0x34, 0x00, 0x00, 0x80, 0x37, 0x00, 0x00, 0x90, 0x2e, 0x65, 0x00,
		0x90, 0x32, 0x65, 0x00, 0x90, 0x35, 0x65, 0x86, 0x70, 0x80, 0x2e, 0x00, 0x00, 0x80, 0x32, 0x00,
		0x00, 0x80, 0x35, 0x00, 0x00, 0x90, 0x2d, 0x65, 0x00, 0x90, 0x30, 0x65, 0x00, 0x90, 0x34, 0x65,
		0x86, 0x70, 0x80, 0x2d, 0x00, 0x00, 0x80, 0x30, 0x00, 0x00, 0x80, 0x34, 0x00, 0x00, 0x90, 0x2f,
		0x65, 0x00, 0x90, 0x33, 0x65, 0x00, 0x90, 0x36, 0x65, 0x86, 0x70, 0x80, 0x2f, 0x00, 0x00, 0x80,
		0x33, 0x00, 0x00, 0x80, 0x36, 0x00, 0x00, 0x90, 0x34, 0x65, 0x00, 0x90, 0x38, 0x65, 0x00, 0x90,
		0x3b, 0x65, 0x86, 0x70, 0x80, 0x34, 0x00, 0x00, 0x80, 0x38, 0x00, 0x00, 0x80, 0x3b, 0x00, 0x00,
		0x90, 0x2d, 0x65, 0x00, 0x90, 0x31, 0x65, 0x00, 0x90, 0x34, 0x65, 0x86, 0x70, 0x80, 0x2d, 0x00,
		0x00, 0x80, 0x31, 0x00, 0x00, 0x80, 0x34, 0x00, 0x00, 0x90, 0x2b, 0x65, 0x00, 0x90, 0x2f, 0x65,
		0x00, 0x90, 0x32, 0x65, 0x00, 0x90, 0x34, 0x65, 0x86, 0x70, 0x80, 0x2b, 0x00, 0x00, 0x80, 0x2f,
		0x00, 0x00, 0x80, 0x32, 0x00, 0x00, 0x80, 0x34, 0x00, 0x00, 0x90, 0x35, 0x65, 0x00, 0x90, 0x39,
		0x65, 0x00, 0x90, 0x3c, 0x65, 0x86, 0x70, 0x80, 0x35, 0x00, 0x00, 0x80, 0x39, 0x00, 0x00, 0x80,
		0x3c, 0x00, 0x00, 0x90, 0x34, 0x65, 0x00, 0x90, 0x38, 0x65, 0x00, 0x90, 0x3b, 0x65, 0x86, 0x70,
		0x80, 0x34, 0x00, 0x00, 0x80, 0x38, 0x00, 0x00, 0x80, 0x3b, 0x00, 0x00, 0x90, 0x33, 0x65, 0x00,
		0x90, 0x36, 0x65, 0x00, 0x90, 0x39, 0x65, 0x86, 0x70, 0x80, 0x33, 0x00, 0x00, 0x80, 0x36, 0x00,
		0x00, 0x80, 0x39, 0x00, 0x00, 0x90, 0x34, 0x65, 0x00, 0x90, 0x38, 0x65, 0x00, 0x90, 0x3b, 0x65,
		0x86, 0x70, 0x80, 0x34, 0x00, 0x00, 0x80, 0x38, 0x00, 0x00, 0x80, 0x3b, 0x00, 0x86, 0x70, 0x90,
		0x34, 0x65, 0x00, 0x90, 0x38, 0x65, 0x00, 0x90, 0x3b, 0x65, 0x86, 0x70, 0x80, 0x34, 0x00, 0x00,
		0x80, 0x38, 0x00, 0x00, 0x80, 0x3b, 0x00, 0x00, 0x90, 0x2e, 0x65, 0x00, 0x90, 0x32, 0x65, 0x00,
		0x90, 0x35, 0x65, 0x86, 0x70, 0x80, 0x2e, 0x00, 0x00, 0x80, 0x32, 0x00, 0x00, 0x80, 0x35, 0x00,
		0x00, 0x90, 0x2d, 0x65, 0x00, 0x90, 0x30, 0x65, 0x00, 0x90, 0x34, 0x65, 0x86, 0x70, 0x80, 0x2d,
		0x00, 0x00, 0x80, 0x30, 0x00, 0x00, 0x80, 0x34, 0x00, 0x00, 0x90, 0x2f, 0x65, 0x00, 0x90, 0x33,
		0x65, 0x00, 0x90, 0x36, 0x65, 0x86, 0x70, 0x80, 0x2f, 0x00, 0x00, 0x80, 0x33, 0x00, 0x00, 0x80,
		0x36, 0x00, 0x00, 0x90, 0x34, 0x65, 0x00, 0x90, 0x38, 0x65, 0x00, 0x90, 0x3b, 0x65, 0x86, 0x70,
		0x80, 0x34, 0x00, 0x00, 0x80, 0x38, 0x00, 0x00, 0x80, 0x3b, 0x00, 0x00, 0xff, 0x2f, 0x00,
};

const uint8_t death[] = {
		0x4d, 0x54, 0x68, 0x64, 0x00, 0x00, 0x00, 0x06, 0x00, 0x00, 0x00, 0x01, 0x00, 0x2b, 0x4d, 0x54, 0x72,
		0x6b, 0x00, 0x00, 0x05, 0x96, 0x00, 0xff, 0x51, 0x03, 0x07, 0xa1, 0x20, 0x00, 0xc0, 0x00, 0x00,
		0x90, 0x42, 0x3a, 0x00, 0x90, 0x54, 0x25, 0x01, 0x90, 0x37, 0x45, 0x01, 0x90, 0x40, 0x31, 0x00,
		0x80, 0x42, 0x40, 0x01, 0x90, 0x2d, 0x3d, 0x00, 0x80, 0x54, 0x40, 0x01, 0x90, 0x3f, 0x1f, 0x00,
		0x80, 0x40, 0x40, 0x01, 0x90, 0x2c, 0x4a, 0x00, 0x80, 0x2d, 0x40, 0x00, 0x80, 0x37, 0x40, 0x00,
		0x90, 0x49, 0x24, 0x01, 0x80, 0x3f, 0x40, 0x00, 0x90, 0x5f, 0x1c, 0x01, 0x80, 0x2c, 0x40, 0x00,
		0x90, 0x37, 0x43, 0x00, 0x80, 0x49, 0x40, 0x02, 0x90, 0x53, 0x1f, 0x01, 0x80, 0x37, 0x40, 0x00,
		0x90, 0x40, 0x38, 0x00, 0x80, 0x5f, 0x40, 0x01, 0x90, 0x37, 0x41, 0x01, 0x90, 0x35, 0x43, 0x00,
		0x80, 0x37, 0x40, 0x00, 0x80, 0x40, 0x40, 0x00, 0x80, 0x53, 0x40, 0x01, 0x90, 0x29, 0x4b, 0x00,
		0x90, 0x48, 0x26, 0x01, 0x80, 0x35, 0x40, 0x00, 0x90, 0x3d, 0x16, 0x01, 0x80, 0x29, 0x40, 0x00,
		0x90, 0x35, 0x45, 0x00, 0x90, 0x5d, 0x1d, 0x02, 0x80, 0x3d, 0x40, 0x00, 0x90, 0x3f, 0x3d, 0x00,
		0x80, 0x48, 0x40, 0x00, 0x90, 0x51, 0x23, 0x01, 0x80, 0x35, 0x40, 0x00, 0x80, 0x5d, 0x40, 0x02,
		0x90, 0x35, 0x47, 0x00, 0x80, 0x3f, 0x40, 0x00, 0x80, 0x51, 0x40, 0x01, 0x80, 0x35, 0x40, 0x00,
		0x90, 0x46, 0x24, 0x01, 0x90, 0x29, 0x4b, 0x01, 0x90, 0x5c, 0x1c, 0x01, 0x80, 0x29, 0x40, 0x00,
		0x90, 0x33, 0x43, 0x00, 0x80, 0x46, 0x40, 0x01, 0x80, 0x33, 0x40, 0x00, 0x90, 0x34, 0x41, 0x00,
		0x90, 0x3d, 0x3d, 0x00, 0x90, 0x50, 0x21, 0x01, 0x80, 0x34, 0x40, 0x01, 0x80, 0x5c, 0x40, 0x01,
		0x90, 0x33, 0x48, 0x00, 0x90, 0x3c, 0x36, 0x00, 0x80, 0x3d, 0x40, 0x01, 0x80, 0x50, 0x40, 0x01,
		0x90, 0x29, 0x46, 0x00, 0x80, 0x33, 0x40, 0x00, 0x90, 0x45, 0x25, 0x01, 0x90, 0x28, 0x4d, 0x00,
		0x80, 0x29, 0x40, 0x00, 0x80, 0x3c, 0x40, 0x01, 0x90, 0x5b, 0x1d, 0x01, 0x80, 0x28, 0x40, 0x00,
		0x90, 0x32, 0x48, 0x01, 0x90, 0x3c, 0x3f, 0x00, 0x80, 0x45, 0x40, 0x00, 0x90, 0x4e, 0x23, 0x01,
		0x80, 0x32, 0x40, 0x00, 0x80, 0x5b, 0x40, 0x02, 0x90, 0x32, 0x48, 0x00, 0x80, 0x3c, 0x40, 0x01,
		0x90, 0x30, 0x45, 0x00, 0x80, 0x32, 0x40, 0x00, 0x80, 0x4e, 0x40, 0x01, 0x90, 0x28, 0x4b, 0x00,
		0x80, 0x30, 0x40, 0x00, 0x90, 0x44, 0x25, 0x01, 0x90, 0x25, 0x49, 0x00, 0x80, 0x28, 0x40, 0x01,
		0x80, 0x25, 0x40, 0x00, 0x90, 0x30, 0x46, 0x00, 0x90, 0x59, 0x1d, 0x02, 0x90, 0x3a, 0x3e, 0x00,
		0x80, 0x44, 0x40, 0x00, 0x90, 0x4d, 0x22, 0x01, 0x80, 0x30, 0x40, 0x00, 0x80, 0x59, 0x40, 0x01,
		0x90, 0x30, 0x4a, 0x00, 0x80, 0x3a, 0x40, 0x01, 0x80, 0x4d, 0x40, 0x01, 0x90, 0x28, 0x45, 0x00,
		0x80, 0x30, 0x40, 0x00, 0x90, 0x42, 0x25, 0x01, 0x90, 0x24, 0x4f, 0x00, 0x80, 0x28, 0x40, 0x01,
		0x80, 0x24, 0x40, 0x00, 0x90, 0x27, 0x44, 0x00, 0x90, 0x58, 0x1f, 0x01, 0x80, 0x27, 0x40, 0x00,
		0x90, 0x2f, 0x48, 0x01, 0x80, 0x2f, 0x40, 0x00, 0x90, 0x30, 0x3f, 0x00, 0x90, 0x4c, 0x25, 0x01,
		0x90, 0x39, 0x41, 0x00, 0x80, 0x42, 0x40, 0x00, 0x80, 0x58, 0x40, 0x01, 0x80, 0x30, 0x40, 0x01,
		0x90, 0x2f, 0x48, 0x00, 0x80, 0x4c, 0x40, 0x01, 0x90, 0x2e, 0x49, 0x00, 0x80, 0x2f, 0x40, 0x00,
		0x80, 0x39, 0x40, 0x01, 0x90, 0x24, 0x4d, 0x00, 0x80, 0x2e, 0x40, 0x02, 0x80, 0x24, 0x40, 0x00,
		0x90, 0x2c, 0x47, 0x00, 0x90, 0x42, 0x17, 0x01, 0x80, 0x2c, 0x40, 0x00, 0x90, 0x2f, 0x47, 0x00,
		0x90, 0x56, 0x1d, 0x01, 0x90, 0x37, 0x42, 0x00, 0x90, 0x4a, 0x24, 0x01, 0x80, 0x2f, 0x40, 0x00,
		0x80, 0x42, 0x40, 0x00, 0x80, 0x56, 0x40, 0x01, 0x90, 0x2d, 0x4b, 0x02, 0x90, 0x2a, 0x48, 0x00,
		0x80, 0x2d, 0x40, 0x00, 0x90, 0x3f, 0x25, 0x00, 0x80, 0x4a, 0x40, 0x01, 0x90, 0x24, 0x4f, 0x00,
		0x80, 0x2a, 0x40, 0x00, 0x80, 0x37, 0x40, 0x01, 0x90, 0x55, 0x1f, 0x01, 0x80, 0x24, 0x40, 0x00,
		0x90, 0x2c, 0x4a, 0x00, 0x80, 0x3f, 0x40, 0x01, 0x80, 0x2c, 0x40, 0x00, 0x90, 0x2d, 0x43, 0x00,
		0x90, 0x49, 0x24, 0x01, 0x80, 0x2d, 0x40, 0x00, 0x90, 0x36, 0x41, 0x00, 0x80, 0x55, 0x40, 0x01,
		0x80, 0x36, 0x40, 0x01, 0x90, 0x2d, 0x49, 0x01, 0x90, 0x2b, 0x4a, 0x00, 0x80, 0x2d, 0x40, 0x00,
		0x90, 0x3d, 0x20, 0x00, 0x80, 0x49, 0x40, 0x01, 0x90, 0x24, 0x4f, 0x00, 0x80, 0x2b, 0x40, 0x01,
		0x90, 0x22, 0x4f, 0x00, 0x80, 0x24, 0x40, 0x00, 0x80, 0x3d, 0x40, 0x00, 0x90, 0x3e, 0x24, 0x01,
		0x80, 0x22, 0x40, 0x00, 0x90, 0x27, 0x4a, 0x00, 0x90, 0x54, 0x1f, 0x01, 0x80, 0x27, 0x40, 0x00,
		0x90, 0x2c, 0x4a, 0x01, 0x90, 0x34, 0x46, 0x00, 0x80, 0x3e, 0x40, 0x00, 0x90, 0x48, 0x27, 0x01,
		0x80, 0x2c, 0x40, 0x00, 0x80, 0x54, 0x40, 0x01, 0x90, 0x2d, 0x41, 0x00, 0x90, 0x33, 0x40, 0x00,
		0x80, 0x34, 0x40, 0x00, 0x80, 0x48, 0x40, 0x01, 0x90, 0x2a, 0x4b, 0x00, 0x80, 0x2d, 0x40, 0x00,
		0x90, 0x3c, 0x21, 0x01, 0x90, 0x28, 0x49, 0x00, 0x80, 0x2a, 0x40, 0x01, 0x90, 0x1e, 0x4f, 0x00,
		0x80, 0x28, 0x40, 0x00, 0x80, 0x33, 0x40, 0x00, 0x80, 0x3c, 0x40, 0x00, 0x90, 0x3d, 0x26, 0x01,
		0x80, 0x1e, 0x40, 0x00, 0x90, 0x21, 0x4c, 0x00, 0x90, 0x52, 0x1f, 0x01, 0x80, 0x21, 0x40, 0x00,
		0x90, 0x28, 0x4d, 0x01, 0x80, 0x28, 0x40, 0x00, 0x90, 0x29, 0x45, 0x00, 0x90, 0x46, 0x25, 0x01,
		0x80, 0x29, 0x40, 0x00, 0x90, 0x33, 0x45, 0x00, 0x80, 0x3d, 0x40, 0x01, 0x80, 0x52, 0x40, 0x01,
		0x90, 0x29, 0x4e, 0x00, 0x80, 0x46, 0x40, 0x01, 0x80, 0x33, 0x40, 0x00, 0x90, 0x3b, 0x25, 0x01,
		0x90, 0x1e, 0x50, 0x00, 0x80, 0x29, 0x40, 0x02, 0x80, 0x1e, 0x40, 0x00, 0x90, 0x22, 0x4c, 0x00,
		0x80, 0x3b, 0x40, 0x00, 0x90, 0x3c, 0x1b, 0x00, 0x90, 0x51, 0x21, 0x01, 0x80, 0x22, 0x40, 0x00,
		0x90, 0x28, 0x4d, 0x01, 0x80, 0x28, 0x40, 0x00, 0x90, 0x2b, 0x42, 0x00, 0x90, 0x45, 0x24, 0x01,
		0x80, 0x2b, 0x40, 0x00, 0x90, 0x32, 0x46, 0x00, 0x80, 0x3c, 0x40, 0x00, 0x80, 0x51, 0x40, 0x01,
		0x90, 0x2c, 0x44, 0x00, 0x80, 0x32, 0x40, 0x00, 0x90, 0x3c, 0x14, 0x01, 0x90, 0x29, 0x4d, 0x00,
		0x80, 0x2c, 0x40, 0x00, 0x80, 0x45, 0x40, 0x01, 0x90, 0x26, 0x4d, 0x00, 0x80, 0x29, 0x40, 0x01,
		0x90, 0x1e, 0x52, 0x00, 0x80, 0x26, 0x40, 0x00, 0x80, 0x3c, 0x40, 0x01, 0x90, 0x1d, 0x50, 0x00,
		0x80, 0x1e, 0x40, 0x00, 0x90, 0x39, 0x20, 0x00, 0x90, 0x50, 0x1f, 0x01, 0x80, 0x1d, 0x40, 0x00,
		0x90, 0x23, 0x4d, 0x01, 0x80, 0x23, 0x40, 0x00, 0x90, 0x28, 0x4b, 0x00, 0x90, 0x44, 0x23, 0x01,
		0x80, 0x28, 0x40, 0x00, 0x90, 0x30, 0x46, 0x00, 0x80, 0x39, 0x40, 0x00, 0x80, 0x50, 0x40, 0x01,
		0x90, 0x2f, 0x46, 0x00, 0x80, 0x30, 0x40, 0x01, 0x90, 0x29, 0x4a, 0x00, 0x80, 0x2f, 0x40, 0x01,
		0x90, 0x25, 0x4e, 0x00, 0x80, 0x29, 0x40, 0x00, 0x90, 0x3a, 0x21, 0x00, 0x80, 0x44, 0x40, 0x01,
		0x90, 0x21, 0x4f, 0x00, 0x80, 0x25, 0x40, 0x01, 0x90, 0x1c, 0x53, 0x00, 0x80, 0x21, 0x40, 0x00,
		0x90, 0x39, 0x28, 0x00, 0x80, 0x3a, 0x40, 0x01, 0x80, 0x1c, 0x40, 0x00, 0x90, 0x1e, 0x4c, 0x00,
		0x90, 0x4e, 0x21, 0x01, 0x80, 0x1e, 0x40, 0x00, 0x90, 0x24, 0x4d, 0x01, 0x80, 0x24, 0x40, 0x00,
		0x90, 0x28, 0x46, 0x00, 0x80, 0x39, 0x40, 0x00, 0x90, 0x42, 0x29, 0x01, 0x80, 0x28, 0x40, 0x00,
		0x90, 0x2f, 0x48, 0x00, 0x80, 0x4e, 0x40, 0x01, 0x90, 0x2e, 0x42, 0x00, 0x80, 0x2f, 0x40, 0x01,
		0x90, 0x25, 0x4c, 0x00, 0x80, 0x2e, 0x40, 0x00, 0x90, 0x37, 0x28, 0x00, 0x80, 0x42, 0x40, 0x01,
		0x90, 0x24, 0x4f, 0x00, 0x80, 0x25, 0x40, 0x01, 0x90, 0x1e, 0x53, 0x00, 0x80, 0x24, 0x40, 0x01,
		0x90, 0x1b, 0x53, 0x00, 0x80, 0x1e, 0x40, 0x00, 0x90, 0x4d, 0x1e, 0x01, 0x80, 0x1b, 0x40, 0x00,
		0x90, 0x21, 0x4e, 0x00, 0x80, 0x37, 0x40, 0x01, 0x80, 0x21, 0x40, 0x00, 0x90, 0x24, 0x4b, 0x01,
		0x80, 0x24, 0x40, 0x00, 0x90, 0x2c, 0x4a, 0x00, 0x90, 0x41, 0x1f, 0x01, 0x80, 0x4d, 0x40, 0x01,
		0x90, 0x2a, 0x4b, 0x00, 0x80, 0x2c, 0x40, 0x00, 0x80, 0x41, 0x40, 0x01, 0x90, 0x24, 0x4f, 0x00,
		0x80, 0x2a, 0x40, 0x01, 0x90, 0x20, 0x4f, 0x00, 0x80, 0x24, 0x40, 0x01, 0x90, 0x1b, 0x51, 0x00,
		0x80, 0x20, 0x40, 0x00, 0x90, 0x37, 0x25, 0x01, 0x90, 0x4c, 0x23, 0x01, 0x80, 0x1b, 0x40, 0x00,
		0x90, 0x21, 0x4f, 0x01, 0x80, 0x21, 0x40, 0x00, 0x90, 0x26, 0x49, 0x00, 0x80, 0x37, 0x40, 0x00,
		0x90, 0x3f, 0x29, 0x00, 0x80, 0x4c, 0x40, 0x01, 0x80, 0x26, 0x40, 0x00, 0x90, 0x2b, 0x4b, 0x02,
		0x90, 0x24, 0x4e, 0x00, 0x80, 0x2b, 0x40, 0x00, 0x80, 0x3f, 0x40, 0x01, 0x90, 0x20, 0x51, 0x00,
		0x80, 0x24, 0x40, 0x00, 0x90, 0x36, 0x25, 0x01, 0x90, 0x1c, 0x52, 0x00, 0x80, 0x20, 0x40, 0x01,
		0x90, 0x17, 0x50, 0x00, 0x80, 0x1c, 0x40, 0x00, 0x80, 0x36, 0x40, 0x01, 0x80, 0x17, 0x40, 0x00,
		0x90, 0x1b, 0x4a, 0x00, 0x90, 0x33, 0x22, 0x00, 0x90, 0x4a, 0x1f, 0x01, 0x80, 0x1b, 0x40, 0x01,
		0x90, 0x2f, 0x48, 0x00, 0x80, 0x33, 0x40, 0x00, 0x90, 0x41, 0x21, 0x01, 0x80, 0x4a, 0x40, 0x01,
		0x80, 0x41, 0x40, 0x01, 0x90, 0x2e, 0x4b, 0x00, 0x80, 0x2f, 0x40, 0x00, 0x90, 0x40, 0x0f, 0x01,
		0x90, 0x2d, 0x4d, 0x00, 0x80, 0x2e, 0x40, 0x02, 0x90, 0x2c, 0x4d, 0x00, 0x80, 0x2d, 0x40, 0x00,
		0x80, 0x40, 0x40, 0x01, 0x90, 0x2b, 0x4e, 0x00, 0x80, 0x2c, 0x40, 0x02, 0x90, 0x2a, 0x4f, 0x00,
		0x80, 0x2b, 0x40, 0x01, 0x90, 0x29, 0x50, 0x00, 0x80, 0x2a, 0x40, 0x01, 0x90, 0x28, 0x50, 0x00,
		0x80, 0x29, 0x40, 0x02, 0x90, 0x27, 0x4e, 0x00, 0x80, 0x28, 0x40, 0x01, 0x90, 0x26, 0x4e, 0x00,
		0x80, 0x27, 0x40, 0x01, 0x90, 0x25, 0x4b, 0x00, 0x80, 0x26, 0x40, 0x02, 0x80, 0x25, 0x40, 0x0f,
		0x90, 0x33, 0x2f, 0x02, 0x80, 0x33, 0x40, 0x00, 0xff, 0x2f, 0x00,
};
